<?xml version="1.0" encoding="utf-8"?>
<svg width="84" height="37" viewBox="0 0 84 37" fill="none" xmlns="http://www.w3.org/2000/svg">
  <path d="M20.3182 11.787C21.5485 11.787 22.6782 12.0219 23.7072 12.4917C24.7585 12.939 25.6644 13.5654 26.425 14.3707C27.1855 15.1759 27.7783 16.1154 28.2033 17.1892C28.6283 18.2629 28.8408 19.4149 28.8408 20.6452C28.8408 21.8531 28.6283 22.9939 28.2033 24.0676C27.7783 25.1413 27.1855 26.0808 26.425 26.8861C25.6644 27.6914 24.7585 28.3289 23.7072 28.7987C22.6782 29.2461 21.5485 29.4697 20.3182 29.4697C18.9985 29.4697 17.8017 29.2125 16.728 28.698L18.1708 25.1078C18.7077 25.3315 19.3116 25.4433 19.9827 25.4433C21.3472 25.4433 22.488 24.9736 23.4052 24.0341C24.3447 23.0946 24.8144 21.9649 24.8144 20.6452C24.8144 19.303 24.3447 18.1622 23.4052 17.2227C22.4657 16.2832 21.3248 15.8135 19.9827 15.8135C18.6853 15.8135 17.5445 16.2832 16.5602 17.2227C15.6207 18.1622 15.151 19.303 15.151 20.6452V27.6914V29.0336H11.1246V5.51252H15.151V13.5654C15.7997 13.0509 16.5491 12.6259 17.3991 12.2903C18.2491 11.9548 19.2222 11.787 20.3182 11.787ZM30.6865 29V12.2232H34.713V29H30.6865ZM30.6865 5.51252H34.713V9.53894H30.6865V5.51252ZM45.431 15.7799C44.0888 15.7799 42.948 16.2497 42.0085 17.1892C41.069 18.1287 40.5993 19.2695 40.5993 20.6116C40.5993 21.9314 41.069 23.061 42.0085 24.0005C42.4559 24.4703 42.9704 24.8282 43.552 25.0742C44.1559 25.2979 44.7823 25.4098 45.431 25.4098C46.0797 25.4098 46.6948 25.2979 47.2764 25.0742C47.858 24.8282 48.3837 24.4703 48.8534 24.0005C49.7929 23.061 50.2627 21.9314 50.2627 20.6116C50.2627 19.2695 49.7929 18.1287 48.8534 17.1892C47.8692 16.2497 46.7284 15.7799 45.431 15.7799ZM45.431 11.7535C46.6613 11.7535 47.8133 11.9884 48.887 12.4581C49.9607 12.9055 50.9002 13.5318 51.7055 14.3371C52.5108 15.1424 53.1371 16.0819 53.5845 17.1556C54.0542 18.2293 54.2891 19.3813 54.2891 20.6116C54.2891 21.8195 54.0542 22.9604 53.5845 24.0341C53.1371 25.1078 52.5108 26.0473 51.7055 26.8526C50.9002 27.6579 49.9607 28.2954 48.887 28.7651C47.8133 29.2125 46.6613 29.4362 45.431 29.4362C44.2007 29.4362 43.0487 29.2125 41.975 28.7651C40.9012 28.2954 39.9617 27.6579 39.1565 26.8526C38.3512 26.0473 37.7137 25.1078 37.2439 24.0341C36.7965 22.9604 36.5728 21.8195 36.5728 20.6116C36.5728 19.3813 36.7965 18.2293 37.2439 17.1556C37.7137 16.0819 38.3512 15.1424 39.1565 14.3371C39.9617 13.5318 40.9012 12.9055 41.975 12.4581C43.0487 11.9884 44.2007 11.7535 45.431 11.7535ZM63.8975 9.53894C63.3383 9.53894 62.8126 9.65079 62.3205 9.87448C61.8507 10.0758 61.4257 10.3554 61.0454 10.7133C60.6875 11.0712 60.3967 11.4962 60.173 11.9884C59.9493 12.4581 59.8375 12.9726 59.8375 13.5318H62.2198L63.2264 17.5582H59.8375V29H55.8111V17.5582V13.5654V13.5318C55.8334 12.4581 56.046 11.4403 56.4486 10.4784C56.8512 9.4942 57.4328 8.62181 58.1934 7.86126C58.9539 7.10072 59.8263 6.51912 60.8106 6.11648C61.7948 5.71384 62.8238 5.51252 63.8975 5.51252V9.53894ZM83.3625 12.2232L75.578 29L74.5379 31.2816C73.9116 32.6462 72.9721 33.7311 71.7194 34.5363C70.4667 35.3416 69.0798 35.7443 67.5588 35.7443H65.7804L66.787 31.7178H67.7601C68.4088 31.7178 69.0127 31.5389 69.572 31.181C70.1312 30.8231 70.545 30.3421 70.8134 29.7382L71.149 29L63.3646 12.2232H67.7936L73.3635 24.2354L78.9334 12.2232H83.3625Z" style="fill: rgb(0, 0, 0);"/>
  <path d="M19.8355 31.1586V31.8712H18.6182V35.3152H17.9057V31.8712H16.6825V31.1586H17.9057H18.6182H19.8355ZM23.5544 31.8712H21.4702V32.8806H23.02L23.1981 33.5932H21.4702V34.6026H23.5544V35.3152H20.7576V31.1586H23.5544V31.8712ZM27.8203 34.757C27.6224 34.955 27.3928 35.1113 27.1315 35.2261C26.8703 35.337 26.5892 35.3924 26.2884 35.3924C25.9915 35.3924 25.7104 35.337 25.4452 35.2261C25.1839 35.1113 24.9543 34.9569 24.7564 34.763C24.5624 34.565 24.408 34.3354 24.2932 34.0742C24.1824 33.8089 24.1269 33.5279 24.1269 33.231C24.1269 32.9341 24.1824 32.655 24.2932 32.3937C24.408 32.1285 24.5624 31.8989 24.7564 31.7049C24.9543 31.507 25.1839 31.3526 25.4452 31.2418C25.7104 31.127 25.9915 31.0696 26.2884 31.0696C26.5892 31.0696 26.8703 31.127 27.1315 31.2418C27.3928 31.3526 27.6224 31.507 27.8203 31.7049L27.3156 32.2096C27.1771 32.0711 27.0207 31.9662 26.8465 31.8949C26.6723 31.8197 26.4863 31.7821 26.2884 31.7821C26.0944 31.7821 25.9103 31.8197 25.7361 31.8949C25.5619 31.9662 25.4056 32.0711 25.267 32.2096C25.1285 32.3482 25.0216 32.5046 24.9464 32.6787C24.8751 32.8529 24.8395 33.037 24.8395 33.231C24.8395 33.4249 24.8751 33.611 24.9464 33.7891C25.0216 33.9633 25.1285 34.1197 25.267 34.2582C25.4056 34.3968 25.5619 34.5017 25.7361 34.5729C25.9103 34.6442 26.0944 34.6798 26.2884 34.6798C26.4863 34.6798 26.6723 34.6442 26.8465 34.5729C27.0207 34.5017 27.1771 34.3968 27.3156 34.2582L27.8203 34.757ZM31.1239 31.1586H31.8364V35.3152H31.1239V33.5932H29.3959V35.3152H28.6834V31.1586H29.3959V32.8806H31.1239V31.1586ZM35.2839 31.1527H35.9965V35.3092H35.2245L33.556 32.465V35.3092H32.8434V31.1527H33.6154L35.2839 33.997V31.1527ZM39.1055 31.7821C38.9115 31.7821 38.7275 31.8197 38.5533 31.8949C38.3791 31.9662 38.2227 32.0711 38.0842 32.2096C37.9456 32.3482 37.8387 32.5046 37.7635 32.6787C37.6923 32.8529 37.6566 33.037 37.6566 33.231C37.6566 33.4249 37.6923 33.611 37.7635 33.7891C37.8387 33.9633 37.9456 34.1197 38.0842 34.2582C38.2227 34.3968 38.3791 34.5017 38.5533 34.5729C38.7275 34.6442 38.9115 34.6798 39.1055 34.6798C39.2995 34.6798 39.4836 34.6442 39.6577 34.5729C39.8359 34.5017 39.9942 34.3968 40.1328 34.2582C40.2713 34.1197 40.3762 33.9633 40.4475 33.7891C40.5187 33.611 40.5544 33.4249 40.5544 33.231C40.5544 33.037 40.5187 32.8529 40.4475 32.6787C40.3762 32.5046 40.2713 32.3482 40.1328 32.2096C39.9942 32.0711 39.8359 31.9662 39.6577 31.8949C39.4836 31.8197 39.2995 31.7821 39.1055 31.7821ZM39.1055 31.0696C39.4024 31.0696 39.6815 31.127 39.9428 31.2418C40.208 31.3526 40.4376 31.507 40.6316 31.7049C40.8295 31.8989 40.9839 32.1285 41.0947 32.3937C41.2095 32.655 41.2669 32.9341 41.2669 33.231C41.2669 33.5279 41.2095 33.8089 41.0947 34.0742C40.9839 34.3354 40.8295 34.565 40.6316 34.763C40.4376 34.9569 40.208 35.1113 39.9428 35.2261C39.6815 35.337 39.4024 35.3924 39.1055 35.3924C38.8086 35.3924 38.5275 35.337 38.2623 35.2261C38.001 35.1113 37.7714 34.9569 37.5735 34.763C37.3795 34.565 37.2252 34.3354 37.1104 34.0742C36.9995 33.8089 36.9441 33.5279 36.9441 33.231C36.9441 32.9341 36.9995 32.655 37.1104 32.3937C37.2252 32.1285 37.3795 31.8989 37.5735 31.7049C37.7714 31.507 38.001 31.3526 38.2623 31.2418C38.5275 31.127 38.8086 31.0696 39.1055 31.0696ZM42.9314 34.6026H44.5644V35.3152H42.9314H42.2189V34.6026V31.1646H42.9314V34.6026ZM47.3444 31.7821C47.1504 31.7821 46.9664 31.8197 46.7922 31.8949C46.618 31.9662 46.4616 32.0711 46.3231 32.2096C46.1845 32.3482 46.0776 32.5046 46.0024 32.6787C45.9312 32.8529 45.8955 33.037 45.8955 33.231C45.8955 33.4249 45.9312 33.611 46.0024 33.7891C46.0776 33.9633 46.1845 34.1197 46.3231 34.2582C46.4616 34.3968 46.618 34.5017 46.7922 34.5729C46.9664 34.6442 47.1504 34.6798 47.3444 34.6798C47.5384 34.6798 47.7225 34.6442 47.8966 34.5729C48.0748 34.5017 48.2331 34.3968 48.3717 34.2582C48.5102 34.1197 48.6151 33.9633 48.6864 33.7891C48.7576 33.611 48.7933 33.4249 48.7933 33.231C48.7933 33.037 48.7576 32.8529 48.6864 32.6787C48.6151 32.5046 48.5102 32.3482 48.3717 32.2096C48.2331 32.0711 48.0748 31.9662 47.8966 31.8949C47.7225 31.8197 47.5384 31.7821 47.3444 31.7821ZM47.3444 31.0696C47.6413 31.0696 47.9204 31.127 48.1817 31.2418C48.4469 31.3526 48.6765 31.507 48.8705 31.7049C49.0684 31.8989 49.2228 32.1285 49.3336 32.3937C49.4484 32.655 49.5058 32.9341 49.5058 33.231C49.5058 33.5279 49.4484 33.8089 49.3336 34.0742C49.2228 34.3354 49.0684 34.565 48.8705 34.763C48.6765 34.9569 48.4469 35.1113 48.1817 35.2261C47.9204 35.337 47.6413 35.3924 47.3444 35.3924C47.0475 35.3924 46.7664 35.337 46.5012 35.2261C46.2399 35.1113 46.0103 34.9569 45.8124 34.763C45.6184 34.565 45.4641 34.3354 45.3493 34.0742C45.2384 33.8089 45.183 33.5279 45.183 33.231C45.183 32.9341 45.2384 32.655 45.3493 32.3937C45.4641 32.1285 45.6184 31.8989 45.8124 31.7049C46.0103 31.507 46.2399 31.3526 46.5012 31.2418C46.7664 31.127 47.0475 31.0696 47.3444 31.0696ZM54.6915 32.8747C54.6995 32.9341 54.7054 32.9934 54.7094 33.0528C54.7173 33.1122 54.7212 33.1716 54.7212 33.231C54.7212 33.5279 54.6638 33.8089 54.549 34.0742C54.4382 34.3354 54.2838 34.565 54.0859 34.763C53.8919 34.9569 53.6623 35.1113 53.3971 35.2261C53.1358 35.337 52.8567 35.3924 52.5598 35.3924C52.2629 35.3924 51.9819 35.337 51.7166 35.2261C51.4554 35.1113 51.2258 34.9569 51.0278 34.763C50.8339 34.565 50.6795 34.3354 50.5647 34.0742C50.4538 33.8089 50.3984 33.5279 50.3984 33.231C50.3984 32.9341 50.4538 32.655 50.5647 32.3937C50.6795 32.1285 50.8339 31.8989 51.0278 31.7049C51.2258 31.507 51.4554 31.3526 51.7166 31.2418C51.9819 31.127 52.2629 31.0696 52.5598 31.0696C52.8607 31.0696 53.1417 31.127 53.403 31.2418C53.6643 31.3526 53.8919 31.507 54.0859 31.7049L53.5871 32.2096C53.4485 32.0711 53.2902 31.9662 53.1121 31.8949C52.9379 31.8197 52.7538 31.7821 52.5598 31.7821C52.3658 31.7821 52.1818 31.8197 52.0076 31.8949C51.8334 31.9662 51.677 32.0711 51.5385 32.2096C51.3999 32.3482 51.2931 32.5046 51.2178 32.6787C51.1466 32.8529 51.111 33.037 51.111 33.231C51.111 33.4249 51.1466 33.611 51.2178 33.7891C51.2931 33.9633 51.3999 34.1197 51.5385 34.2582C51.677 34.3968 51.8334 34.5017 52.0076 34.5729C52.1818 34.6442 52.3658 34.6798 52.5598 34.6798C52.7538 34.6798 52.9379 34.6442 53.1121 34.5729C53.2902 34.5017 53.4485 34.3968 53.5871 34.2582C53.7731 34.0643 53.8998 33.8406 53.9671 33.5872H52.0432L52.2214 32.8747H54.6915ZM56.4154 31.1646V35.3152H55.7029V31.1646H56.4154ZM60.2525 31.8712H58.1683V32.8806H59.7181L59.8962 33.5932H58.1683V34.6026H60.2525V35.3152H57.4557V31.1586H60.2525V31.8712ZM64.1605 34.1276C64.1605 34.3216 64.1288 34.4977 64.0655 34.6561C64.0021 34.8105 63.9111 34.9431 63.7923 35.0539C63.6775 35.1608 63.537 35.2439 63.3707 35.3033C63.2045 35.3627 63.0184 35.3924 62.8126 35.3924C62.484 35.3924 62.1911 35.3409 61.9337 35.238C61.6764 35.1311 61.4646 35.0104 61.2984 34.8758L61.7912 34.3829C61.9219 34.5017 62.0683 34.5927 62.2306 34.6561C62.3296 34.6957 62.4226 34.7214 62.5097 34.7333C62.5968 34.7451 62.6681 34.7511 62.7235 34.7511C62.8264 34.7511 62.9194 34.7392 63.0026 34.7155C63.0897 34.6877 63.1649 34.6521 63.2282 34.6086C63.3628 34.5096 63.4301 34.379 63.4301 34.2167C63.4301 34.1177 63.3945 34.0286 63.3232 33.9495C63.2678 33.8861 63.1966 33.8347 63.1095 33.7951C63.0382 33.7555 62.963 33.7238 62.8838 33.7001C62.8046 33.6763 62.7334 33.6545 62.6701 33.6347C62.6503 33.6268 62.6324 33.6229 62.6166 33.6229C62.6008 33.6189 62.5869 33.613 62.575 33.6051C62.5671 33.6051 62.5553 33.6011 62.5394 33.5932C62.4563 33.5694 62.3355 33.5279 62.1772 33.4685C62.0228 33.4091 61.8684 33.328 61.714 33.225C61.3538 32.9836 61.1737 32.6867 61.1737 32.3343C61.1737 32.1008 61.2133 31.9048 61.2924 31.7465C61.3756 31.5842 61.4825 31.4535 61.6131 31.3546C61.7437 31.2517 61.8882 31.1784 62.0466 31.1349C62.2089 31.0913 62.3672 31.0696 62.5216 31.0696C62.8066 31.0696 63.0461 31.1032 63.2401 31.1705C63.4341 31.2378 63.5885 31.3051 63.7033 31.3724C63.7626 31.408 63.8121 31.4436 63.8517 31.4793C63.8952 31.5109 63.9329 31.5406 63.9645 31.5683L63.4598 32.079C63.3529 31.9721 63.2441 31.891 63.1332 31.8355C62.9669 31.7564 62.7928 31.7168 62.6107 31.7168C62.5315 31.7168 62.4523 31.7267 62.3732 31.7465C62.294 31.7663 62.2247 31.792 62.1653 31.8237C61.9911 31.9306 61.9041 32.0711 61.9041 32.2453C61.9041 32.3522 61.9397 32.4432 62.0109 32.5184C62.0624 32.5778 62.1337 32.6312 62.2247 32.6787C62.2999 32.7183 62.3791 32.75 62.4622 32.7737C62.5454 32.7975 62.6225 32.8193 62.6938 32.8391L62.7651 32.8569C62.7849 32.8648 62.8225 32.8767 62.8779 32.8925C62.9333 32.9083 62.9986 32.9321 63.0738 32.9638C63.149 32.9954 63.2302 33.033 63.3173 33.0766C63.4083 33.1201 63.4974 33.1716 63.5845 33.231C63.9685 33.4843 64.1605 33.7832 64.1605 34.1276Z" fill="#979797"/>
  <circle cx="4.76598" cy="24.4549" r="4.76598" fill="#3157A4"/>
</svg>