<svg width="53" height="25" viewBox="0 0 53 25" fill="none" xmlns="http://www.w3.org/2000/svg">
<g clip-path="url(#clip0_628_5)">
<path d="M14.2363 7.68403C14.9785 7.68403 15.6599 7.83741 16.2806 8.14416C16.9148 8.4363 17.4612 8.84532 17.92 9.37117C18.3789 9.89703 18.7365 10.5105 18.9927 11.2117C19.2492 11.9128 19.3774 12.6651 19.3774 13.4685C19.3774 14.2573 19.2492 15.0023 18.9927 15.7034C18.7365 16.4046 18.3789 17.0181 17.92 17.544C17.4612 18.0698 16.9148 18.4861 16.2806 18.7929C15.6599 19.0851 14.9785 19.2311 14.2363 19.2311C13.4402 19.2311 12.7183 19.0631 12.0706 18.7271L12.9409 16.3827C13.2648 16.5287 13.6291 16.6019 14.0339 16.6019C14.857 16.6019 15.5452 16.295 16.0984 15.6815C16.6652 15.068 16.9485 14.3304 16.9485 13.4685C16.9485 12.5921 16.6652 11.8471 16.0984 11.2336C15.5317 10.6201 14.8435 10.3133 14.0339 10.3133C13.2513 10.3133 12.5631 10.6201 11.9694 11.2336C11.4026 11.8471 11.1193 12.5921 11.1193 13.4685V18.0698V18.9463H8.69043V3.58667H11.1193V8.84532C11.5106 8.50935 11.9626 8.2318 12.4754 8.01268C12.9881 7.79358 13.5751 7.68403 14.2363 7.68403ZM20.4908 18.9243V7.96888H22.9196V18.9243H20.4908ZM20.4908 3.58667H22.9196V6.21598H20.4908V3.58667ZM29.3851 10.2914C28.5754 10.2914 27.8872 10.5982 27.3205 11.2117C26.7538 11.8252 26.4704 12.5702 26.4704 13.4466C26.4704 14.3084 26.7538 15.0461 27.3205 15.6596C27.5903 15.9664 27.9007 16.2001 28.2515 16.3608C28.6159 16.5069 28.9937 16.5799 29.3851 16.5799C29.7763 16.5799 30.1474 16.5069 30.4982 16.3608C30.849 16.2001 31.1661 15.9664 31.4495 15.6596C32.0162 15.0461 32.2996 14.3084 32.2996 13.4466C32.2996 12.5702 32.0162 11.8252 31.4495 11.2117C30.8558 10.5982 30.1676 10.2914 29.3851 10.2914ZM29.3851 7.66211C30.1271 7.66211 30.822 7.81549 31.4698 8.12225C32.1174 8.4144 32.6841 8.8234 33.1699 9.34926C33.6558 9.87513 34.0335 10.4886 34.3034 11.1898C34.5869 11.8909 34.7284 12.6432 34.7284 13.4466C34.7284 14.2354 34.5869 14.9804 34.3034 15.6815C34.0335 16.3827 33.6558 16.9961 33.1699 17.522C32.6841 18.048 32.1174 18.4642 31.4698 18.7711C30.822 19.0631 30.1271 19.2091 29.3851 19.2091C28.6429 19.2091 27.948 19.0631 27.3002 18.7711C26.6526 18.4642 26.0859 18.048 25.6001 17.522C25.1142 16.9961 24.7297 16.3827 24.4463 15.6815C24.1765 14.9804 24.0416 14.2354 24.0416 13.4466C24.0416 12.6432 24.1765 11.8909 24.4463 11.1898C24.7297 10.4886 25.1142 9.87513 25.6001 9.34926C26.0859 8.8234 26.6526 8.4144 27.3002 8.12225C27.948 7.81549 28.6429 7.66211 29.3851 7.66211ZM40.5245 6.21598C40.1872 6.21598 39.87 6.28903 39.5733 6.4351C39.2898 6.56657 39.0335 6.74915 38.8041 6.98287C38.5883 7.21659 38.4127 7.49414 38.2779 7.81549C38.143 8.12225 38.0754 8.45822 38.0754 8.8234H39.5125L40.1196 11.4527H38.0754V18.9243H35.6466V11.4527V8.84532V8.8234C35.6601 8.12225 35.7883 7.45761 36.0311 6.8295C36.274 6.18678 36.6249 5.61709 37.0837 5.12044C37.5425 4.62378 38.0687 4.24401 38.6624 3.98107C39.2562 3.71814 39.8768 3.58667 40.5245 3.58667V6.21598ZM52.2663 7.96888L47.5706 18.9243L46.9431 20.4142C46.5653 21.3053 45.9986 22.0138 45.2429 22.5396C44.4872 23.0655 43.6506 23.3285 42.733 23.3285H41.6604L42.2676 20.6992H42.8546C43.2459 20.6992 43.6101 20.5822 43.9475 20.3486C44.2849 20.1148 44.5345 19.8008 44.6964 19.4063L44.8989 18.9243L40.203 7.96888H42.8747L46.2347 15.813L49.5946 7.96888H52.2663Z" fill="white"/>
<path d="M13.945 20.4193V20.8846H13.2107V23.1336H12.7809V20.8846H12.043V20.4193H12.7809H13.2107H13.945ZM16.1883 20.8846H14.9311V21.5437H15.8659L15.9734 22.009H14.9311V22.6683H16.1883V23.1336H14.5012V20.4193H16.1883V20.8846ZM18.7616 22.7692C18.6422 22.8983 18.5038 23.0005 18.3462 23.0755C18.1886 23.1478 18.019 23.1839 17.8375 23.1839C17.6584 23.1839 17.4888 23.1478 17.3289 23.0755C17.1713 23.0005 17.0328 22.8996 16.9134 22.7729C16.7964 22.6436 16.7032 22.4939 16.634 22.3232C16.5671 22.15 16.5337 21.9664 16.5337 21.7726C16.5337 21.5787 16.5671 21.3964 16.634 21.2259C16.7032 21.0526 16.7964 20.9027 16.9134 20.776C17.0328 20.6467 17.1713 20.546 17.3289 20.4736C17.4888 20.3987 17.6584 20.3611 17.8375 20.3611C18.019 20.3611 18.1886 20.3987 18.3462 20.4736C18.5038 20.546 18.6422 20.6467 18.7616 20.776L18.4571 21.1056C18.3736 21.0151 18.2792 20.9467 18.1742 20.9001C18.0691 20.851 17.9568 20.8264 17.8375 20.8264C17.7205 20.8264 17.6094 20.851 17.5044 20.9001C17.3994 20.9467 17.305 21.0151 17.2214 21.1056C17.1378 21.196 17.0734 21.2983 17.028 21.412C16.985 21.5257 16.9635 21.6459 16.9635 21.7726C16.9635 21.8993 16.985 22.0207 17.028 22.137C17.0734 22.2509 17.1378 22.3529 17.2214 22.4433C17.305 22.5339 17.3994 22.6023 17.5044 22.6489C17.6094 22.6955 17.7205 22.7186 17.8375 22.7186C17.9568 22.7186 18.0691 22.6955 18.1742 22.6489C18.2792 22.6023 18.3736 22.5339 18.4571 22.4433L18.7616 22.7692ZM20.7544 20.4193H21.1842V23.1336H20.7544V22.009H19.7121V23.1336H19.2822V20.4193H19.7121V21.5437H20.7544V20.4193ZM23.2639 20.4154H23.6938V23.1298H23.228L22.2215 21.2723V23.1298H21.7917V20.4154H22.2574L23.2639 22.2728V20.4154ZM25.5692 20.8264C25.4522 20.8264 25.3411 20.851 25.2361 20.9001C25.131 20.9467 25.0366 21.0151 24.9531 21.1056C24.8694 21.196 24.805 21.2983 24.7597 21.412C24.7167 21.5257 24.6951 21.6459 24.6951 21.7726C24.6951 21.8993 24.7167 22.0207 24.7597 22.137C24.805 22.2509 24.8694 22.3529 24.9531 22.4433C25.0366 22.5339 25.131 22.6023 25.2361 22.6489C25.3411 22.6955 25.4522 22.7186 25.5692 22.7186C25.6862 22.7186 25.7972 22.6955 25.9023 22.6489C26.0098 22.6023 26.1053 22.5339 26.1888 22.4433C26.2724 22.3529 26.3357 22.2509 26.3787 22.137C26.4216 22.0207 26.4431 21.8993 26.4431 21.7726C26.4431 21.6459 26.4216 21.5257 26.3787 21.412C26.3357 21.2983 26.2724 21.196 26.1888 21.1056C26.1053 21.0151 26.0098 20.9467 25.9023 20.9001C25.7972 20.851 25.6862 20.8264 25.5692 20.8264ZM25.5692 20.3611C25.7482 20.3611 25.9166 20.3987 26.0742 20.4736C26.2343 20.546 26.3728 20.6467 26.4898 20.776C26.6091 20.9027 26.7023 21.0526 26.7691 21.2259C26.8384 21.3964 26.8729 21.5787 26.8729 21.7726C26.8729 21.9664 26.8384 22.15 26.7691 22.3232C26.7023 22.4939 26.6091 22.6436 26.4898 22.7729C26.3728 22.8996 26.2343 23.0005 26.0742 23.0755C25.9166 23.1478 25.7482 23.1839 25.5692 23.1839C25.3901 23.1839 25.2205 23.1478 25.0606 23.0755C24.9029 23.0005 24.7644 22.8996 24.645 22.7729C24.528 22.6436 24.4349 22.4939 24.3656 22.3232C24.2988 22.15 24.2653 21.9664 24.2653 21.7726C24.2653 21.5787 24.2988 21.3964 24.3656 21.2259C24.4349 21.0526 24.528 20.9027 24.645 20.776C24.7644 20.6467 24.9029 20.546 25.0606 20.4736C25.2205 20.3987 25.3901 20.3611 25.5692 20.3611ZM27.877 22.6683H28.862V23.1336H27.877H27.4472V22.6683V20.4231H27.877V22.6683ZM30.5391 20.8264C30.4221 20.8264 30.311 20.851 30.2059 20.9001C30.1009 20.9467 30.0066 21.0151 29.923 21.1056C29.8395 21.196 29.7749 21.2983 29.7296 21.412C29.6865 21.5257 29.6652 21.6459 29.6652 21.7726C29.6652 21.8993 29.6865 22.0207 29.7296 22.137C29.7749 22.2509 29.8395 22.3529 29.923 22.4433C30.0066 22.5339 30.1009 22.6023 30.2059 22.6489C30.311 22.6955 30.4221 22.7186 30.5391 22.7186C30.6561 22.7186 30.7672 22.6955 30.8722 22.6489C30.9797 22.6023 31.0752 22.5339 31.1588 22.4433C31.2423 22.3529 31.3057 22.2509 31.3486 22.137C31.3916 22.0207 31.4131 21.8993 31.4131 21.7726C31.4131 21.6459 31.3916 21.5257 31.3486 21.412C31.3057 21.2983 31.2423 21.196 31.1588 21.1056C31.0752 21.0151 30.9797 20.9467 30.8722 20.9001C30.7672 20.851 30.6561 20.8264 30.5391 20.8264ZM30.5391 20.3611C30.7182 20.3611 30.8866 20.3987 31.0441 20.4736C31.2041 20.546 31.3427 20.6467 31.4597 20.776C31.5791 20.9027 31.6722 21.0526 31.739 21.2259C31.8083 21.3964 31.843 21.5787 31.843 21.7726C31.843 21.9664 31.8083 22.15 31.739 22.3232C31.6722 22.4939 31.5791 22.6436 31.4597 22.7729C31.3427 22.8996 31.2041 23.0005 31.0441 23.0755C30.8866 23.1478 30.7182 23.1839 30.5391 23.1839C30.3599 23.1839 30.1905 23.1478 30.0304 23.0755C29.8728 23.0005 29.7343 22.8996 29.615 22.7729C29.498 22.6436 29.4048 22.4939 29.3355 22.3232C29.2687 22.15 29.2353 21.9664 29.2353 21.7726C29.2353 21.5787 29.2687 21.3964 29.3355 21.2259C29.4048 21.0526 29.498 20.9027 29.615 20.776C29.7343 20.6467 29.8728 20.546 30.0304 20.4736C30.1905 20.3987 30.3599 20.3611 30.5391 20.3611ZM34.9711 21.5399C34.9759 21.5787 34.9794 21.6174 34.9818 21.6563C34.9867 21.695 34.989 21.7337 34.989 21.7726C34.989 21.9664 34.9544 22.15 34.8851 22.3232C34.8183 22.4939 34.7251 22.6436 34.6058 22.7729C34.4888 22.8996 34.3503 23.0005 34.1902 23.0755C34.0326 23.1478 33.8642 23.1839 33.6852 23.1839C33.5061 23.1839 33.3365 23.1478 33.1766 23.0755C33.0189 23.0005 32.8804 22.8996 32.761 22.7729C32.644 22.6436 32.5509 22.4939 32.4817 22.3232C32.4148 22.15 32.3813 21.9664 32.3813 21.7726C32.3813 21.5787 32.4148 21.3964 32.4817 21.2259C32.5509 21.0526 32.644 20.9027 32.761 20.776C32.8804 20.6467 33.0189 20.546 33.1766 20.4736C33.3365 20.3987 33.5061 20.3611 33.6852 20.3611C33.8666 20.3611 34.0362 20.3987 34.1939 20.4736C34.3515 20.546 34.4888 20.6467 34.6058 20.776L34.3048 21.1056C34.2213 21.0151 34.1258 20.9467 34.0183 20.9001C33.9132 20.851 33.8022 20.8264 33.6852 20.8264C33.5682 20.8264 33.4571 20.851 33.3521 20.9001C33.247 20.9467 33.1526 21.0151 33.0691 21.1056C32.9855 21.196 32.921 21.2983 32.8757 21.412C32.8327 21.5257 32.8112 21.6459 32.8112 21.7726C32.8112 21.8993 32.8327 22.0207 32.8757 22.137C32.921 22.2509 32.9855 22.3529 33.0691 22.4433C33.1526 22.5339 33.247 22.6023 33.3521 22.6489C33.4571 22.6955 33.5682 22.7186 33.6852 22.7186C33.8022 22.7186 33.9132 22.6955 34.0183 22.6489C34.1258 22.6023 34.2213 22.5339 34.3048 22.4433C34.4171 22.3167 34.4935 22.1706 34.5341 22.0052H33.3736L33.4811 21.5399H34.9711ZM36.0109 20.4231V23.1336H35.5811V20.4231H36.0109ZM38.3256 20.8846H37.0684V21.5437H38.0032L38.1107 22.009H37.0684V22.6683H38.3256V23.1336H36.6386V20.4193H38.3256V20.8846ZM40.683 22.358C40.683 22.4847 40.6639 22.5998 40.6257 22.7032C40.5875 22.8039 40.5327 22.8906 40.461 22.9629C40.3917 23.0328 40.307 23.0871 40.2066 23.1259C40.1063 23.1646 39.9942 23.1839 39.8699 23.1839C39.6718 23.1839 39.4951 23.1505 39.3399 23.0832C39.1845 23.0135 39.0569 22.9345 38.9566 22.8466L39.2538 22.5249C39.3326 22.6023 39.4209 22.6619 39.5189 22.7032C39.5786 22.729 39.6346 22.7459 39.6872 22.7536C39.7398 22.7613 39.7827 22.7652 39.8162 22.7652C39.8782 22.7652 39.9344 22.7575 39.9846 22.7419C40.037 22.7239 40.0825 22.7006 40.1207 22.6722C40.2018 22.6076 40.2424 22.5222 40.2424 22.4162C40.2424 22.3516 40.2209 22.2935 40.178 22.2417C40.1445 22.2003 40.1016 22.1669 40.049 22.1409C40.006 22.115 39.9607 22.0943 39.9129 22.0789C39.8652 22.0633 39.8221 22.0492 39.7839 22.0363C39.772 22.031 39.7612 22.0285 39.7517 22.0285C39.7421 22.0259 39.7338 22.022 39.7266 22.0169C39.7218 22.0169 39.7147 22.0143 39.7051 22.009C39.655 21.9936 39.5822 21.9664 39.4867 21.9276C39.3935 21.8889 39.3005 21.8359 39.2072 21.7687C38.9899 21.611 38.8814 21.417 38.8814 21.187C38.8814 21.0346 38.9052 20.9066 38.9529 20.8031C39.0031 20.6973 39.0675 20.6119 39.1463 20.5473C39.2251 20.48 39.3123 20.4323 39.4079 20.4037C39.5058 20.3754 39.6013 20.3611 39.6944 20.3611C39.8664 20.3611 40.0108 20.3831 40.1278 20.427C40.2448 20.471 40.3379 20.515 40.4072 20.559C40.4431 20.5821 40.4729 20.6054 40.4967 20.6287C40.523 20.6494 40.5457 20.6687 40.5648 20.6868L40.2603 21.0203C40.1959 20.9506 40.1303 20.8976 40.0634 20.8613C39.9631 20.8097 39.8581 20.7837 39.7482 20.7837C39.7004 20.7837 39.6527 20.7903 39.6048 20.8031C39.557 20.8161 39.5154 20.833 39.4794 20.8536C39.3744 20.9234 39.3218 21.0151 39.3218 21.1289C39.3218 21.1987 39.3433 21.2581 39.3864 21.3073C39.4175 21.346 39.4603 21.381 39.5154 21.412C39.5607 21.4377 39.6084 21.4586 39.6586 21.474C39.7088 21.4896 39.7553 21.5037 39.7983 21.5166L39.8412 21.5283C39.8532 21.5334 39.8759 21.5413 39.9093 21.5516C39.9428 21.5619 39.9822 21.5773 40.0275 21.598C40.073 21.6187 40.1219 21.6433 40.1744 21.6717C40.2294 21.7002 40.283 21.7337 40.3356 21.7726C40.5672 21.938 40.683 22.1332 40.683 22.358Z" fill="#979797"/>
<path d="M4.40626 19.2332C6.13297 19.2332 7.53274 17.8334 7.53274 16.1067C7.53274 14.38 6.13297 12.9802 4.40626 12.9802C2.67956 12.9802 1.27979 14.38 1.27979 16.1067C1.27979 17.8334 2.67956 19.2332 4.40626 19.2332Z" fill="#3157A4"/>
</g>
<defs>
<clipPath id="clip0_628_5">
<rect width="51.8102" height="24.1185" fill="white" transform="translate(0.833008 0.027832)"/>
</clipPath>
</defs>
</svg>
